<svg width="512" height="114.047" xmlns="http://www.w3.org/2000/svg">
  <path d="M39.696 16.32l1.26.036 1.248.036 1.212.061 1.187.073 1.152.085 1.139.109 1.102.109 1.067.133 1.054.133 1.03.158.993.169.97.194.933.194.921.218.884.23.873.255.836.254.812.279.775.303.763.315.74.327.702.34.679.363.654.376.63.4.606.412.582.424.557.448.521.46.509.485.485.497.448.521.436.545.4.558.376.569.363.594.328.618.303.63V17.277h25.979V89.18l-.024 1.164-.061 1.139-.121 1.114-.158 1.091-.218 1.066-.254 1.042-.291 1.006-.351.982-.388.957-.436.933-.485.897-.521.884-.57.848-.606.812-.654.788-.703.763-.739.739-.787.703-.837.679-.872.642-.909.618-.957.594-.994.557-1.042.521-1.078.497-1.127.472-1.163.437-1.2.4-1.248.375-1.284.339-1.321.316-1.369.278-1.406.243-1.442.218-1.49.181-1.515.146-1.563.121-1.6.085-1.635.048-1.685.012H34.207l-1.842-.012-1.769-.036-1.721-.049-1.672-.06-1.611-.073-1.564-.097-1.502-.109-1.454-.133-1.406-.158-1.345-.169-1.296-.206-1.248-.23-1.188-.255-1.151-.279-1.091-.303-1.042-.339-.993-.375-.958-.4-.896-.437-.848-.472-.8-.497-.764-.545-.702-.582-.667-.63-.618-.654-.569-.703-.521-.751-.485-.8-.436-.836-.4-.885-.351-.933-.303-.981-.267-1.03-.23-1.079-.182-1.139-.133-1.199-.097-1.236-.061-1.309L0 92.549v-1.127h25.979l.037.352.06.339.061.315.085.315.097.291.109.278.133.267.133.267.158.242.169.23.182.218.206.206.218.194.23.182.243.182.266.157.279.158.291.145.315.133.327.134.339.109.364.109.376.097.387.097.412.084.424.073.437.073.46.06.473.049.496.048.509.049.521.036.546.037.557.024.57.024.605.012.606.012.63.012h16.843l.764-.024.751-.048.715-.061.703-.073.666-.097.654-.109.63-.133.618-.157.582-.158.57-.194.545-.206.521-.218.497-.242.484-.267.461-.279.436-.302.424-.328.4-.339.376-.351.363-.388.339-.4.316-.424.302-.436.279-.473.255-.484.242-.509.23-.521.206-.558.182-.569.17-.594.145-.606.133-.642.109-.667.097-.678.073-.703.061-.727.048-.751.024-.776.012-.8v-.109l-.012-.109v-.521l-.012-.109v-.218l-.012-.097v-.109l-.012-.109v-.109l-.012-.109v-.109l-.012-.109v-.109l-.012-.109-.013-.109v-.109l-.012-.121-.012-.11v-.109l-.012-.109-.012-.121-.012-.109v-.121l-.012-.109-.012-.121-.013-.121-.012-.109-.012-.122-.012-.242-.012-.121-.012-.121-.012-.134-.012-.121-.012-.121-.243.4-.278.388-.291.375-.315.364-.34.339-.363.339-.376.315-.412.303-.424.303-.436.279-.473.267-.484.254-.509.242-.533.231-.558.23-.581.206-.594.194-.618.194-.642.169-.667.17-.691.157-.714.146-.727.133-.764.121-.775.121-.8.109-.824.097-.848.085-.861.085-.896.073-.921.06-.933.061-.957.048-.994.049-1.006.036-1.03.024-1.054.025-1.078.012-1.103.012h-1.127l-2.193-.012-2.121-.024-2.06-.037-1.999-.06-1.927-.085-1.878-.097-1.805-.133-1.745-.146-1.684-.17-1.624-.193-1.563-.219-1.503-.254-1.442-.279-1.393-.303-1.321-.339-1.272-.363-1.212-.4-1.151-.436-1.103-.461-1.042-.497-.981-.545-.933-.57-.873-.617-.824-.643-.763-.69-.715-.74-.666-.775-.618-.812-.558-.86-.509-.909-.448-.957-.412-.994-.351-1.054-.316-1.103-.254-1.139-.218-1.199-.158-1.261-.121-1.296-.06-1.369-.025-1.406V41.015l.013-1.309.072-1.272.109-1.224.146-1.188.194-1.151.242-1.115.279-1.078.327-1.03.375-1.006.412-.957.461-.921.509-.897.557-.848.606-.824.642-.775.691-.752.739-.714.788-.679.836-.642.884-.618.921-.582.982-.545 1.03-.509 1.066-.485 1.127-.448 1.175-.412 1.224-.388 1.272-.351 1.321-.327 1.369-.303 1.43-.267 1.479-.23 1.526-.206 1.576-.182 1.623-.145 1.685-.121 1.732-.097 1.782-.073 1.841-.036 1.891-.012 1.32.012 1.297.012zm.339 18.248l-1.563.061-1.454.109-1.357.145-1.248.194-1.163.243-1.055.29-.981.352-.873.4-.799.46-.715.521-.63.594-.558.642-.472.715-.4.788-.339.848-.267.933-.206 1.006-.145 1.078-.085 1.163-.024 1.236v8.01l.036 1.163.097 1.09.157 1.018.231.945.29.885.376.812.436.739.509.679.582.63.666.557.739.497.812.448.897.388.969.339 1.067.291 1.139.23 1.223.194 1.309.146 1.406.096 1.49.061 1.575.024h11.512l1.539-.024 1.466-.048 1.381-.097 1.297-.134 1.211-.181 1.127-.231 1.067-.266.969-.327.909-.388.812-.436.751-.497.678-.558.594-.618.521-.69.461-.764.375-.824.315-.896.231-.982.169-1.054.109-1.139.025-1.224v-8.288l-.025-1.139-.097-1.091-.169-1.005-.23-.945-.303-.873-.376-.824-.448-.751-.521-.691-.594-.63-.667-.581-.739-.509-.824-.461-.896-.412-.97-.351-1.054-.303-1.139-.255-1.224-.206-1.308-.145-1.382-.109-1.478-.073-1.563-.012H41.707l-1.672.012zM158.784 16.368l1.539.097 1.49.121 1.466.17 1.418.194 1.381.242 1.345.267 1.309.315 1.26.339 1.236.376 1.188.424 1.139.448 1.114.485 1.067.521 1.03.545.981.594.945.618.909.666.86.691.824.715.788.763.739.788.703.836.666.86.618.885.57.933.545.957.485.994.448 1.018.412 1.066.364 1.078.327 1.127.279 1.151.242 1.188.194 1.212.157 1.26.109 1.272.061 1.321.024 1.333v15.449h-65.154v.109l-.012.049v.206l-.012.06v.097l-.012.061v.097l-.012.048v.109l-.013.049v.048l-.012.049v.048l-.012.109v.049l-.012.048v.049l-.012.048v.097l-.012.048v.085l-.012.049v.133l-.012.049v.169l.012.63.024.594.048.582.061.569.073.545.097.534.121.509.133.484.158.473.169.46.182.436.218.425.23.399.243.388.266.364.291.351.303.339.327.315.352.303.363.291.388.267.4.254.436.243.448.23.461.206.497.194.508.181.534.17.557.145.569.146.606.121.618.109.643.097.654.085.691.06.702.061.739.036.752.037.775.024h13.038l.618-.012.606-.012.582-.012.569-.013.558-.024.533-.024.521-.036.497-.049.484-.048.473-.061.46-.073.437-.072.424-.085.412-.097.4-.121.375-.121.364-.134.351-.145.339-.158.328-.181.303-.194.302-.206.279-.23.279-.243.254-.254.243-.279.242-.291.218-.315.206-.339.194-.352.194-.387.17-.4.169-.424.146-.436.145-.473.133-.497.121-.521.109-.545h24.429v1.127l-.012 1.284-.061 1.248-.097 1.2-.133 1.163-.182 1.127-.218 1.091-.255 1.042-.29 1.017-.34.97-.375.933-.412.897-.461.86-.496.824-.546.787-.581.764-.618.715-.667.69-.715.655-.751.618-.788.581-.848.546-.872.521-.933.496-.97.449-1.005.436-1.055.388-1.102.363-1.151.34-1.188.303-1.236.278-1.284.255-1.333.218-1.369.194-1.43.169-1.466.134-1.515.121-1.551.085-1.612.06-1.66.037-1.696.012h-24.162l-1.623-.012-1.6-.061-1.551-.085-1.515-.121-1.478-.17-1.43-.194-1.393-.218-1.357-.266-1.321-.303-1.272-.327-1.236-.364-1.188-.4-1.151-.436-1.115-.46-1.066-.497-1.03-.533-.994-.57-.945-.594-.909-.63-.872-.654-.824-.703-.775-.715-.752-.763-.69-.788-.667-.812-.618-.848-.569-.884-.534-.909-.484-.945-.449-.97-.412-.993-.363-1.03-.315-1.067-.279-1.09-.242-1.115-.194-1.139-.145-1.175-.109-1.212-.073-1.236-.012-1.26V44.238l.024-1.333.061-1.297.109-1.272.157-1.248.194-1.212.242-1.175.279-1.151.327-1.115.376-1.091.412-1.054.448-1.018.497-.993.545-.958.582-.933.618-.884.666-.86.703-.836.739-.788.788-.763.836-.728.86-.69.909-.667.945-.63.994-.581 1.03-.558 1.066-.533 1.115-.485 1.139-.448 1.187-.424 1.224-.376 1.26-.351 1.309-.315 1.333-.267 1.381-.242 1.418-.206 1.454-.158 1.49-.133 1.527-.097 1.575-.048 1.6-.024h24.295l1.612.024 1.575.048zm-22.163 17.788l-1.817.097-1.672.17-1.527.242-1.381.315-1.236.4-1.103.485-.957.581-.836.691-.691.776-.558.896-.436.994-.303 1.127-.181 1.236-.061 1.369v.279h40.011v-.279l-.049-1.369-.181-1.236-.303-1.127-.424-.994-.546-.896-.678-.776-.812-.691-.945-.581-1.091-.485-1.224-.4-1.369-.315-1.527-.242-1.66-.17-1.817-.097-1.975-.024h-10.676l-1.975.024zM191.549 89.459V17.701h25.979v11.087c6.737-10.251 16.431-12.214 32.438-12.214 23.58 0 35.236 8.846 35.236 26.258v46.627h-25.979V53.083c0-11.644-3.09-15.582-20.769-15.582-15.17 0-20.926 4.774-20.926 17.133v34.825h-25.979M286.475 36.095V17.277h14.601V.01h25.979v17.267h40.581v18.818h-40.581v24.574c0 7.306 2.521 10.251 10.118 10.251 8.276 0 11.221-2.666 11.221-10.397 0-1.26-.134-2.666-.279-4.204h23.035c.278 2.241.278 4.35.278 6.313 0 19.945-10.954 27.809-36.654 27.809-24.428 0-33.698-6.313-33.698-24.998V36.095h-14.601M400.498 66.57v.278c0 4.629 4.64 6.459 14.189 6.459h18.951c7.307 0 10.397-1.406 10.397-5.622 0-3.793-3.514-5.477-10.676-5.611-2.568-.048-23.131-.375-25.7-.424-23.302-.424-34.401-4.629-34.401-22.041s10.954-23.313 35.249-23.313h29.481c18.818 0 27.664 6.737 27.809 21.35h-25.979c-1.26-2.811-5.61-4.217-12.917-4.217h-18.115c-6.313 0-9.415.982-9.415 4.629 0 4.071 3.792 4.641 12.226 4.774 3.175.049 28.56.388 31.723.424 18.406.279 26.827 7.162 26.827 22.89 0 18.818-9.827 24.295-32.438 24.295h-26.391c-26.827 0-38.06-4.072-38.339-23.871h27.519M483.064 60.523H512v28.936h-28.936V60.523"/>
</svg>
