<svg width="59" height="40" viewBox="0 0 59 40" fill="none" xmlns="http://www.w3.org/2000/svg">
<g clip-path="url(#clip0_14681_8376)">
<path d="M15.1527 13.707C15.1527 12.9231 15.7905 12.2862 16.5735 12.2862C17.3564 12.2862 17.9952 12.9235 17.9952 13.707V18.614H16.6139C14.1671 18.614 12.165 20.6029 12.1494 23.0469L12.109 26.4937V26.5029C12.1017 27.7015 12.5646 28.829 13.4094 29.6788C14.2533 30.5275 15.3783 30.9953 16.5744 30.9953C19.0364 30.9953 21.0389 28.9922 21.0389 26.5297V21.4118H24.4349V27.1018C24.4349 28.469 24.0334 30.1246 22.332 31.5951L23.9822 34.2481C26.9124 31.9654 27.5424 29.2125 27.5424 27.1022V21.4118H28.5173V18.578H27.5502L27.5502 13.0249C27.5502 6.701 31.8095 3.47207 32.9677 2.63645L31.3242 -0.00488281C30.245 0.704539 24.4427 4.95961 24.4427 13.0249V18.577L21.0374 18.576V13.7031C21.0374 11.2411 19.0344 8.95888 16.573 8.95888C14.1115 8.95888 12.1085 11.2411 12.1085 13.7031L12.1085 17.1104L15.1527 17.1104V13.707ZM16.5725 27.9525C16.1929 27.9525 15.8348 27.8039 15.5654 27.533C15.2974 27.263 15.1498 26.9049 15.1503 26.5239L15.1907 23.0771V23.0679C15.1951 22.2903 15.8334 21.4464 16.6124 21.4464H17.9937L17.9937 26.5302C17.9937 27.3142 17.3559 27.952 16.572 27.952L16.5725 27.9525Z" fill="#0025A9"/>
<path d="M0 30.6801H3.04419L3.04419 21.4118H3.58745L8.1781 30.6801H11.575L6.22432 19.9744L11.575 9.27122L8.1781 9.27122L3.58745 18.5395H3.04419L3.04419 9.27122H1.87157e-06L0 30.6801Z" fill="#0025A9"/>
<path d="M0 30.6801H3.04419L3.04419 21.4118H3.58745L8.1781 30.6801H11.575L6.22432 19.9744L11.575 9.27122L8.1781 9.27122L3.58745 18.5395H3.04419L3.04419 9.27122H1.87157e-06L0 30.6801Z" fill="#0025A9"/>
<path d="M0 30.6801H3.04419L3.04419 21.4118H3.58745L8.1781 30.6801H11.575L6.22432 19.9744L11.575 9.27122L8.1781 9.27122L3.58745 18.5395H3.04419L3.04419 9.27122H1.87157e-06L0 30.6801Z" fill="#0025A9"/>
<path d="M15.1527 13.707C15.1527 12.9231 15.7905 12.2862 16.5735 12.2862C17.3564 12.2862 17.9952 12.9235 17.9952 13.707V18.614H16.6139C14.1671 18.614 12.165 20.6029 12.1494 23.0469L12.109 26.4937V26.5029C12.1017 27.7015 12.5646 28.829 13.4094 29.6788C14.2533 30.5275 15.3783 30.9953 16.5744 30.9953C19.0364 30.9953 21.0389 28.9922 21.0389 26.5297V21.4118H24.4349V27.1018C24.4349 28.469 24.0334 30.1246 22.332 31.5951L23.9822 34.2481C26.9124 31.9654 27.5424 29.2125 27.5424 27.1022V21.4118H28.5173V18.578H27.5502L27.5502 13.0249C27.5502 6.701 31.8095 3.47207 32.9677 2.63645L31.3242 -0.00488281C30.245 0.704539 24.4427 4.95961 24.4427 13.0249V18.577L21.0374 18.576V13.7031C21.0374 11.2411 19.0344 8.95888 16.573 8.95888C14.1115 8.95888 12.1085 11.2411 12.1085 13.7031L12.1085 17.1104L15.1527 17.1104V13.707ZM16.5725 27.9525C16.1929 27.9525 15.8348 27.8039 15.5654 27.533C15.2974 27.263 15.1498 26.9049 15.1503 26.5239L15.1907 23.0771V23.0679C15.1951 22.2903 15.8334 21.4464 16.6124 21.4464H17.9937L17.9937 26.5302C17.9937 27.3142 17.3559 27.952 16.572 27.952L16.5725 27.9525Z" fill="#0025A9"/>
<path d="M0 30.6801H3.04419L3.04419 21.4118H3.58745L8.1781 30.6801H11.575L6.22432 19.9744L11.575 9.27122L8.1781 9.27122L3.58745 18.5395H3.04419L3.04419 9.27122H1.87157e-06L0 30.6801Z" fill="#0025A9"/>
<path d="M43.2311 22.8798V26.2822C43.2311 27.0662 42.5933 27.703 41.8104 27.703C41.0274 27.703 40.3886 27.0657 40.3886 26.2822V21.3752H41.7699C44.2168 21.3752 46.2188 19.3863 46.2344 16.9423L46.2748 13.4956V13.4863C46.2821 12.2877 45.8193 11.1602 44.9744 10.3105C44.1305 9.46172 43.0055 8.99397 41.8094 8.99397C39.3474 8.99397 37.3449 10.997 37.3449 13.4595V18.5775H33.949L33.949 12.8875C33.949 11.5203 34.3504 9.86467 36.0518 8.39417L34.4016 5.74115C31.4714 8.02387 30.8414 10.7768 30.8414 12.887V18.5775H29.8665V21.4113H30.8336V26.9644C30.8336 33.2883 26.5743 36.5172 25.4162 37.3528L27.0601 39.9951C28.1393 39.2857 33.9417 35.0306 33.9417 26.9653V21.4132L37.3469 21.4142V26.2871C37.3469 28.7491 39.3499 31.0314 41.8113 31.0314C44.2728 31.0314 46.2758 28.7491 46.2758 26.2871V22.8798H43.2311ZM41.8113 12.0368C42.1909 12.0368 42.549 12.1854 42.8184 12.4563C43.0864 12.7262 43.234 13.0844 43.2335 13.4654L43.1931 16.9121V16.9214C43.1887 17.699 42.5505 18.5429 41.7714 18.5429H40.3901V13.459C40.3901 12.6751 41.0279 12.0373 41.8118 12.0373L41.8113 12.0368Z" fill="#0025A9"/>
<path d="M58.3838 9.30923H55.3397V18.5775H54.7959L50.2057 9.30923H46.8083L52.159 20.0149L46.8083 30.7186H50.2057L54.7959 21.4503H55.3397V30.7186H58.3838L58.3838 9.30923Z" fill="#0025A9"/>
</g>
<defs>
<clipPath id="clip0_14681_8376">
<rect width="58.38" height="40" fill="white"/>
</clipPath>
</defs>
</svg>
